<?xml version="1.0" encoding="UTF-8" standalone="no"?>
<svg width="40px" height="40px" viewBox="0 0 40 40" version="1.1" xmlns="http://www.w3.org/2000/svg" xmlns:xlink="http://www.w3.org/1999/xlink">
    <!-- Generator: Sketch 44.1 (41455) - http://www.bohemiancoding.com/sketch -->
    <title>Google +_Color</title>
    <desc>Created with Sketch.</desc>
    <defs></defs>
    <g id="Page-1" stroke="none" stroke-width="1" fill="none" fill-rule="evenodd">
        <g id="Municipio" transform="translate(-772.000000, -1765.000000)">
            <g id="Group-15" transform="translate(435.000000, 1751.000000)">
                <g id="Group-4" transform="translate(34.000000, 14.000000)">
                    <g id="Group-3" transform="translate(202.000000, 0.000000)">
                        <g id="Google-+" transform="translate(101.000000, 0.000000)">
                            <path d="M0,20 C0,8.95430446 8.8202402,0 19.7005591,0 C30.580878,0 39.4011182,8.95430446 39.4011182,20 C39.4011182,31.0456955 30.580878,40 19.7005591,40 C8.8202402,40 0,31.0456955 0,20 Z" id="back" fill="#DC4E41"></path>
                            <path d="M16.09538,19.4285714 L16.09538,21.6 L19.6453055,21.6 C19.5022355,22.5319048 18.5722802,24.332381 16.09538,24.332381 C13.9582712,24.332381 12.2146051,22.5409524 12.2146051,20.3333333 C12.2146051,18.1257143 13.9582712,16.3342857 16.09538,16.3342857 C17.3114754,16.3342857 18.1251863,16.8590476 18.5901639,17.3114286 L20.2891207,15.6557143 C19.1982116,14.6242857 17.7853949,14 16.09538,14 C12.6348733,14 9.83606557,16.8319048 9.83606557,20.3333333 C9.83606557,23.8347619 12.6348733,26.6666667 16.09538,26.6666667 C19.7078987,26.6666667 22.1043219,24.0971429 22.1043219,20.4780952 C22.1043219,20.0619048 22.0596125,19.7452381 22.0059613,19.4285714 L16.09538,19.4285714 L16.09538,19.4285714 Z" id="Shape" fill="#FFFFFF"></path>
                            <polyline id="Shape-Copy" fill="#FFFFFF" points="29.5081967 19.4285714 27.7198212 19.4285714 27.7198212 17.6190476 25.9314456 17.6190476 25.9314456 19.4285714 24.14307 19.4285714 24.14307 21.2380952 25.9314456 21.2380952 25.9314456 23.047619 27.7198212 23.047619 27.7198212 21.2380952 29.5081967 21.2380952"></polyline>
                        </g>
                    </g>
                </g>
            </g>
        </g>
    </g>
</svg>