<?xml version="1.0" encoding="UTF-8" standalone="no"?>
<svg width="24px" height="24px" viewBox="0 0 24 24" version="1.1" xmlns="http://www.w3.org/2000/svg" xmlns:xlink="http://www.w3.org/1999/xlink">
    <!-- Generator: Sketch 44.1 (41455) - http://www.bohemiancoding.com/sketch -->
    <title>ico_buscador_home</title>
    <desc>Created with Sketch.</desc>
    <defs></defs>
    <g id="Page-1" stroke="none" stroke-width="1" fill="none" fill-rule="evenodd">
        <g id="Principal" transform="translate(-1132.000000, -590.000000)">
            <g id="ico_buscador_home" transform="translate(1129.000000, 587.000000)">
                <g id="Icon-24px">
                    <path d="M20.1526587,18.0943396 L19.0686106,18.0943396 L18.6843911,17.7238422 C20.0291595,16.1595197 20.838765,14.1286449 20.838765,11.9193825 C20.838765,6.99313894 16.8456261,3 11.9193825,3 C6.99313894,3 3,6.99313894 3,11.9193825 C3,16.8456261 6.99313894,20.838765 11.9193825,20.838765 C14.1286449,20.838765 16.1595197,20.0291595 17.7238422,18.6843911 L18.0943396,19.0686106 L18.0943396,20.1526587 L24.9554031,27 L27,24.9554031 L20.1526587,18.0943396 L20.1526587,18.0943396 Z M11.9193825,18.0943396 C8.5025729,18.0943396 5.74442539,15.3361921 5.74442539,11.9193825 C5.74442539,8.5025729 8.5025729,5.74442539 11.9193825,5.74442539 C15.3361921,5.74442539 18.0943396,8.5025729 18.0943396,11.9193825 C18.0943396,15.3361921 15.3361921,18.0943396 11.9193825,18.0943396 L11.9193825,18.0943396 Z" id="Shape" fill="#FFFFFF"></path>
                    <polygon id="Shape" points="0 0 24 0 24 24 0 24"></polygon>
                </g>
            </g>
        </g>
    </g>
</svg>