<?xml version="1.0" encoding="UTF-8" standalone="no"?>
<svg width="30px" height="30px" viewBox="0 0 30 30" version="1.1" xmlns="http://www.w3.org/2000/svg" xmlns:xlink="http://www.w3.org/1999/xlink">
    <!-- Generator: Sketch 44.1 (41455) - http://www.bohemiancoding.com/sketch -->
    <title>ico_youtube</title>
    <desc>Created with Sketch.</desc>
    <defs></defs>
    <g id="Page-1" stroke="none" stroke-width="1" fill="none" fill-rule="evenodd">
        <g id="Principal" transform="translate(-826.000000, -2909.000000)">
            <g id="Group-10" transform="translate(363.000000, 2909.000000)">
                <g id="ico_youtube" transform="translate(463.000000, 0.000000)">
                    <path d="M0,15 C0,6.71572834 6.61518015,0 14.7754193,0 C22.9356585,0 29.5508386,6.71572834 29.5508386,15 C29.5508386,23.2842717 22.9356585,30 14.7754193,30 C6.61518015,30 0,23.2842717 0,15 Z" id="back" fill="#CE1312"></path>
                    <path d="M22.4655738,11.9806727 C22.4655738,11.9806727 22.3116393,10.8540232 21.84,10.3578887 C21.2414754,9.70642467 20.5706557,9.70335895 20.2632787,9.6655485 C18.0609836,9.5 14.757541,9.5 14.757541,9.5 L14.7506557,9.5 C14.7506557,9.5 11.4472131,9.5 9.24491803,9.6655485 C8.93704918,9.70335895 8.26672131,9.70642467 7.66770492,10.3578887 C7.19606557,10.8540232 7.04262295,11.9806727 7.04262295,11.9806727 C7.04262295,11.9806727 6.8852459,13.3040387 6.8852459,14.6268939 L6.8852459,15.8674857 C6.8852459,17.1908517 7.04262295,18.5137068 7.04262295,18.5137068 C7.04262295,18.5137068 7.19606557,19.6403563 7.66770492,20.1364909 C8.26672131,20.7879549 9.05311475,20.7675168 9.40327869,20.8354734 C10.6622951,20.9611676 14.7540984,21 14.7540984,21 C14.7540984,21 18.0609836,20.9948905 20.2632787,20.829342 C20.5706557,20.7910206 21.2414754,20.7879549 21.84,20.1364909 C22.3116393,19.6403563 22.4655738,18.5137068 22.4655738,18.5137068 C22.4655738,18.5137068 22.6229508,17.1908517 22.6229508,15.8674857 L22.6229508,14.6268939 C22.6229508,13.3040387 22.4655738,11.9806727 22.4655738,11.9806727 L22.4655738,11.9806727 Z" id="Youtube" fill="#FFFFFF"></path>
                    <polygon id="Path" fill="#CE1312" points="13.1291803 17.3707069 13.1286885 12.7767361 17.3808197 15.0816413"></polygon>
                </g>
            </g>
        </g>
    </g>
</svg>